<?xml version="1.0" encoding="iso-8859-1"?>
<!-- Generator: Adobe Illustrator 19.0.0, SVG Export Plug-In . SVG Version: 6.00 Build 0)  -->
<svg version="1.1" xmlns="http://www.w3.org/2000/svg" xmlns:xlink="http://www.w3.org/1999/xlink"
	 viewBox="0 0 512 512" style="enable-background:new 0 0 512 512;" xml:space="preserve">
<path style="fill:#FF8A6C;" d="M102.4,281.6v153.6c0,37.7,30.566,68.267,68.267,68.267h170.667c37.7,0,68.267-30.566,68.267-68.267
	V281.6H102.4z"/>
<polygon style="fill:#FF7754;" points="286.891,247.467 225.109,247.467 160.683,247.467 85.333,247.467 85.333,281.6 102.4,281.6 
	409.6,281.6 426.667,281.6 426.667,247.467 351.317,247.467 "/>
<path style="fill:#FFF3C1;" d="M258.048,34.219c-1.365-0.111-2.731-0.111-4.096,0c0.683,0.341,1.365,0.683,2.048,1.109
	C256.683,34.901,257.365,34.56,258.048,34.219z"/>
<path style="fill:#64C37D;" d="M299.605,41.728c-13.278-4.813-27.264-7.347-41.387-7.509h-0.171
	c-0.683,0.341-1.365,0.683-2.048,1.109c10.342,5.965,19.866,13.252,28.331,21.675c23.356,23.45,37.393,54.588,39.484,87.612
	c0.196,2.987,0.452,5.973,0.452,8.986c0.06,34.927-13.321,68.54-37.376,93.867h64.427c47.164-52.659,42.718-133.581-9.941-180.745
	C329.182,55.791,314.999,47.309,299.605,41.728z"/>
<path style="fill:#86D09A;" d="M323.814,144.614c-2.091-33.024-16.128-64.162-39.484-87.612
	c-8.465-8.422-17.988-15.71-28.331-21.675c-10.342,5.965-19.866,13.252-28.331,21.675c-52.241,52.343-53.367,136.738-2.56,190.464
	h61.781c24.055-25.327,37.436-58.94,37.376-93.867C324.267,150.562,324.011,147.627,323.814,144.614z"/>
<path style="fill:#64C37D;" d="M256,35.328c-0.683-0.427-1.365-0.768-2.048-1.109c-14.174,0.162-28.22,2.697-41.557,7.509
	c-66.458,24.098-100.804,97.502-76.706,163.968c5.581,15.394,14.063,29.577,24.994,41.771h64.427
	c-50.807-53.726-49.681-138.121,2.56-190.464C236.134,48.58,245.658,41.293,256,35.328z"/>
<g>
	<path style="fill:#231F20;" d="M426.667,238.933H368.64c13.841-20.224,21.956-43.81,23.475-68.267h26.018V153.6h-25.933
		c-1.801-28.049-12.194-54.869-29.773-76.8H384V59.733h-13.534l6.212-6.212l-12.066-12.066l-6.212,6.212V34.133h-17.067v21.53
		c-11.639-9.412-24.764-16.836-38.827-21.965c-12.22-4.378-25.011-6.963-37.973-7.671V0h-17.067v26.027
		c-1.707,0.102-3.413,0.119-5.069,0.282c-2.133,0.205-4.267,0.572-6.357,0.853c-1.596,0.23-3.2,0.384-4.787,0.666
		c-2.074,0.375-4.105,0.913-6.161,1.382c-1.613,0.367-3.234,0.657-4.83,1.092c-3.627,0.973-7.219,2.099-10.778,3.371
		c-16.102,5.862-30.95,14.72-43.759,26.095l-18.338-18.313l-12.066,12.066l18.398,18.398c-20.036,22.724-31.966,51.447-33.92,81.681
		H93.867v17.067h25.993c1.527,24.457,9.651,48.051,23.501,68.267H85.333c-4.71,0-8.533,3.823-8.533,8.533V281.6
		c0,4.71,3.823,8.533,8.533,8.533h8.533V435.2c0.051,42.394,34.406,76.749,76.8,76.8h170.667c42.394-0.051,76.749-34.406,76.8-76.8
		V290.133h8.533c4.71,0,8.533-3.823,8.533-8.533v-34.133C435.2,242.756,431.377,238.933,426.667,238.933z M375.467,162.133
		c0.017,28.109-9.916,55.313-28.032,76.8h-42.539c18.142-24.747,27.921-54.647,27.904-85.333c0-1.604-0.179-3.174-0.23-4.77
		l21.871-21.862l-12.066-12.066L330.3,126.976c-5.308-28.809-19.243-55.33-39.97-76.041c-1.596-1.587-3.26-3.072-4.915-4.574
		c3.806,0.964,7.569,2.048,11.281,3.413C343.902,67.021,375.347,111.872,375.467,162.133z M229.009,238.933
		c-20.284-22.545-31.838-51.601-32.58-81.92l21.478-21.47l-12.066-12.066l-7.484,7.475c4.54-25.702,16.87-49.382,35.319-67.84
		c6.827-6.69,14.37-12.612,22.494-17.655c7.987,5.043,15.394,10.931,22.11,17.57c15.727,15.761,27.059,35.354,32.862,56.849
		l-4.983-4.975l-12.066,12.066l21.385,21.333c0.068,1.758,0.256,3.49,0.256,5.257c0.06,31.497-11.546,61.892-32.58,85.333
		L229.009,238.933z M136.533,162.133c0.102-50.261,31.548-95.121,78.754-112.375c3.046-1.092,6.127-2.057,9.242-2.893
		c0.674-0.188,1.357-0.307,2.031-0.478c-1.707,1.51-3.328,2.995-4.932,4.591c-22.511,22.519-36.932,51.857-41.02,83.43
		l-10.982-10.974l-12.066,12.066l21.82,21.811c0.691,29.397,10.368,57.882,27.725,81.621h-42.539
		C146.449,217.446,136.516,190.242,136.533,162.133z M401.067,435.2c-0.034,32.973-26.761,59.699-59.733,59.733H170.667
		c-32.973-0.034-59.699-26.761-59.733-59.733V290.133h290.133V435.2z M418.133,273.067H93.867V256h324.267V273.067z"/>
	<rect x="366.933" y="332.8" style="fill:#231F20;" width="17.067" height="17.067"/>
	<rect x="366.933" y="307.2" style="fill:#231F20;" width="17.067" height="17.067"/>
	<rect x="341.333" y="307.2" style="fill:#231F20;" width="17.067" height="17.067"/>
</g>
<g>
</g>
<g>
</g>
<g>
</g>
<g>
</g>
<g>
</g>
<g>
</g>
<g>
</g>
<g>
</g>
<g>
</g>
<g>
</g>
<g>
</g>
<g>
</g>
<g>
</g>
<g>
</g>
<g>
</g>
</svg>
