<?xml version="1.0" standalone="no"?>
<!DOCTYPE svg PUBLIC "-//W3C//DTD SVG 20010904//EN"
 "http://www.w3.org/TR/2001/REC-SVG-20010904/DTD/svg10.dtd">
<svg version="1.0" xmlns="http://www.w3.org/2000/svg" viewBox="0 0 1280.000000 1128.000000"
 preserveAspectRatio="xMidYMid meet">
<metadata>
Created by potrace 1.15, written by Peter Selinger 2001-2017
</metadata>
<g transform="translate(0.000000,1128.000000) scale(0.100000,-0.100000)" stroke="none">
<path d="M6535 11269 c-1275 -95 -2430 -769 -3143 -1837 -80 -119 -164 -258
-221 -368 l-32 -61 -217 -6 c-443 -11 -808 -98 -1211 -288 -755 -356 -1348
-1050 -1586 -1856 -88 -298 -119 -517 -119 -848 -1 -253 6 -333 45 -550 191
-1056 953 -1941 1979 -2296 198 -69 420 -119 670 -151 130 -16 7925 -24 8168
-8 175 11 314 34 456 76 679 196 1214 739 1401 1420 54 197 69 313 70 534 0
205 -11 305 -50 475 -173 740 -752 1327 -1495 1515 -66 16 -102 23 -237 46
l-33 5 0 72 c0 301 -44 657 -121 972 -313 1299 -1254 2380 -2499 2873 -574
227 -1216 326 -1825 281z"/>
</g>
</svg>
