<svg viewBox="0 0 512.00007 512" xmlns="http://www.w3.org/2000/svg"><path d="m443.789062 204.328125c-4.332031-5-11.074218-7.28125-17.5625-6.023437-24.429687 4.742187-50.695312-2.367188-69.617187-21.324219-19.03125-19.070313-26.09375-45.59375-21.195313-70.195313 1.203126-6.058594-.4375-12.335937-4.695312-16.804687-12.617188-13.234375-20.679688-35.640625-12.953125-58.960938 2.652344-8.011719-2.046875-16.597656-10.292969-18.320312-16.363281-3.410157-33.316406-5.203125-50.6875-5.203125-136.804687 0-265.027344 96.507812-247.710937 248.238281 15.546875 136.210937 111.117187 240.609375 247.714843 248.234375 170.53125 9.519531 247.710938-111.136719 247.710938-248.234375 0-7.648437-.351562-15.214844-1.027344-22.6875-.734375-8.066406-8.09375-13.78125-16.085937-12.578125-21.109375 3.183594-34.140625-5.226562-43.597657-16.140625zm0 0" fill="#ffc477"/><path d="m132.03125 296.644531c-35.945312-119.164062 35.457031-234.183593 73.773438-284.640625-115.796876 20.667969-211.863282 111.101563-196.726563 243.730469 15.542969 136.210937 111.113281 240.613281 247.710937 248.238281 31.339844 1.75 59.53125-.902344 84.667969-7.238281-73.699219-63.828125-175.980469-89.210937-209.425781-200.089844zm0 0" fill="#ffb864"/><path d="m256 290.324219c-15.519531 0-28.101562-12.578125-28.101562-28.097657v-20.429687c0-4.238281 3.4375-7.671875 7.671874-7.671875h40.859376c4.238281 0 7.671874 3.433594 7.671874 7.671875v20.429687c0 15.519532-12.582031 28.097657-28.101562 28.097657zm0 0" fill="#57565c"/><path d="m191.976562 262.226562c0-13.183593-13.417968-23.871093-29.972656-23.871093-16.550781 0-29.972656 10.6875-29.972656 23.871093 0 13.179688 13.421875 23.867188 29.972656 23.867188 16.554688 0 29.972656-10.6875 29.972656-23.867188zm0 0" fill="#ff8aab"/><path d="m379.96875 262.226562c0-13.183593-13.417969-23.871093-29.972656-23.871093-16.554688 0-29.972656 10.6875-29.972656 23.871093 0 13.179688 13.417968 23.867188 29.972656 23.867188 16.554687 0 29.972656-10.6875 29.972656-23.867188zm0 0" fill="#ff8aab"/><path d="m222.769531 148.878906-23.132812-14.347656c-8.480469-5.257812-11.089844-16.394531-5.832031-24.871094l14.351562-23.136718c5.257812-8.476563 16.394531-11.085938 24.871094-5.828126l23.136718 14.351563c8.476563 5.257813 11.085938 16.394531 5.828126 24.871094l-14.351563 23.132812c-5.257813 8.480469-16.390625 11.089844-24.871094 5.828125zm0 0" fill="#c68d6d"/><path d="m91.660156 190.417969-16.578125-10.28125c-6.074219-3.765625-7.941406-11.746094-4.175781-17.820313l10.28125-16.574218c3.769531-6.074219 11.746094-7.945313 17.820312-4.175782l16.578126 10.28125c6.074218 3.769532 7.941406 11.746094 4.175781 17.820313l-10.28125 16.574219c-3.769531 6.074218-11.746094 7.945312-17.820313 4.175781zm0 0" fill="#b2785b"/><g fill="#c68d6d"><path d="m308.402344 434.488281-16.425782-10.515625c-6.023437-3.851562-7.777343-11.855468-3.925781-17.878906l10.515625-16.425781c3.855469-6.019531 11.859375-7.777344 17.878906-3.925781l16.429688 10.515624c6.019531 3.855469 7.777344 11.859376 3.921875 17.878907l-10.515625 16.429687c-3.851562 6.019532-11.855469 7.777344-17.878906 3.921875zm0 0"/><path d="m150.25 407.699219-15.394531-22.457031c-5.640625-8.230469-3.539063-19.472657 4.6875-25.113282l22.457031-15.390625c8.226562-5.640625 19.46875-3.542969 25.109375 4.6875l15.394531 22.453125c5.636719 8.230469 3.539063 19.472656-4.6875 25.113282l-22.457031 15.390624c-8.226563 5.640626-19.46875 3.542969-25.109375-4.683593zm0 0"/><path d="m443.390625 368.792969-27.210937-.894531c-9.96875-.328126-17.785157-8.675782-17.457032-18.648438l.894532-27.207031c.328124-9.972657 8.675781-17.789063 18.644531-17.460938l27.210937.894531c9.96875.328126 17.789063 8.675782 17.460938 18.648438l-.894532 27.207031c-.328124 9.972657-8.679687 17.789063-18.648437 17.460938zm0 0"/></g><path d="m150.25 407.699219c5.640625 8.226562 16.882812 10.324219 25.113281 4.683593l22.453125-15.390624c.300782-.207032.589844-.417969.875-.640626-15.972656-13.683593-30.515625-29.117187-42.578125-47.578124l-16.570312 11.355468c-8.226563 5.640625-10.324219 16.882813-4.683594 25.113282zm0 0" fill="#b2785b"/><path d="m336.65625 249.125c-4.140625 0-7.5-3.359375-7.5-7.5v-12.453125c0-4.140625 3.359375-7.5 7.5-7.5 4.144531 0 7.5 3.359375 7.5 7.5v12.453125c0 4.140625-3.355469 7.5-7.5 7.5zm0 0"/><path d="m175.34375 249.125c-4.144531 0-7.5-3.359375-7.5-7.5v-12.453125c0-4.140625 3.355469-7.5 7.5-7.5s7.5 3.359375 7.5 7.5v12.453125c0 4.140625-3.355469 7.5-7.5 7.5zm0 0"/><path d="m275.316406 511.996094c-83.210937 0-147.066406-31.351563-193.152344-78.691406-22.046874-22.648438-40.167968-49.320313-53.851562-79.273438-13.765625-30.121094-22.746094-62.90625-26.6875-97.445312-4.152344-36.398438-.335938-71.039063 11.34375-102.960938 10.917969-29.84375 28.410156-56.621094 51.984375-79.597656 2.96875-2.890625 7.714844-2.828125 10.605469.136718 2.890625 2.964844 2.828125 7.714844-.136719 10.605469-21.953125 21.394531-38.226563 46.296875-48.367187 74.007813-10.871094 29.714844-14.414063 62.046875-10.527344 96.109375 3.761718 32.964843 12.320312 64.226562 25.425781 92.910156 12.972656 28.382813 30.117187 53.632813 50.960937 75.042969 43.417969 44.601562 100.226563 70.066406 164.292969 73.644531 36.164063 2.015625 69.300781-1.929687 98.496094-11.734375 27.167969-9.121094 51.113281-23.367188 71.171875-42.339844 45.222656-42.765625 70.125-109.0625 70.125-186.675781 0-7.324219-.335938-14.726563-.996094-22.007813-.164062-1.800781-.210937-7.027343-7.5-5.839843-20.328125 3.3125-36.847656-3.027344-50.382812-18.644531-2.5625-2.960938-6.574219-4.324219-10.464844-3.570313-27.808594 5.398437-56.355469-3.347656-76.355469-23.394531-20.132812-20.175782-28.820312-48.941406-23.242187-76.957032.75-3.761718-.285156-7.558593-2.765625-10.160156-12.558594-13.171875-23.945313-38.5-14.648438-66.5 2.1875-6.585937-2.925781-8.246094-4.699219-8.613281-16.0625-3.347656-32.601562-5.046875-49.15625-5.046875-58.453124 0-114.78125 17.90625-158.605468 50.421875-3.328125 2.464844-8.027344 1.769531-10.492188-1.554687-2.46875-3.328126-1.773437-8.023438 1.554688-10.492188 46.390625-34.421875 105.894531-53.375 167.542968-53.375 17.578126 0 35.148438 1.804688 52.214844 5.359375 5.929688 1.238281 11.070313 4.960937 14.101563 10.21875 3.097656 5.378906 3.746093 11.863281 1.777343 17.800781-7.1875 21.695313 1.578126 41.265625 11.265626 51.429688 5.847656 6.132812 8.320312 14.894531 6.621093 23.441406-4.601562 23.09375 2.558594 46.808594 19.148438 63.433594 16.46875 16.503906 39.976562 23.703125 62.878906 19.261718 9.140625-1.777343 18.59375 1.472657 24.660156 8.472657 10.167969 11.734375 21.519531 15.941406 36.8125 13.636719 5.859375-.886719 11.890625.703124 16.542969 4.351562 4.699219 3.691406 7.585938 9.003906 8.128906 14.964844.703125 7.730468 1.058594 15.589844 1.058594 23.367187 0 81.777344-26.570312 151.941407-74.816406 197.570313-21.652344 20.480468-47.460938 35.839844-76.703125 45.660156-25.796875 8.660156-54.371094 13.027344-85.164063 13.027344zm0 0"/><path d="m256 297.824219c-19.628906 0-35.601562-15.96875-35.601562-35.597657v-20.429687c0-8.367187 6.808593-15.171875 15.171874-15.171875h40.859376c8.363281 0 15.171874 6.804688 15.171874 15.171875v20.429687c0 19.628907-15.972656 35.597657-35.601562 35.597657zm-20.601562-56.027344v20.429687c0 11.355469 9.242187 20.597657 20.601562 20.597657s20.601562-9.238281 20.601562-20.597657v-20.429687c0-.09375-41.203124-.09375-41.203124 0zm0 0"/><path d="m232.25 159.085938c-4.597656 0-9.246094-1.234376-13.433594-3.832032l-23.132812-14.351562c-5.804688-3.597656-9.855469-9.242188-11.417969-15.890625-1.554687-6.648438-.433594-13.507813 3.167969-19.308594l14.351562-23.132813c7.429688-11.980468 23.222656-15.675781 35.195313-8.25l23.136719 14.351563c5.804687 3.597656 9.855468 9.242187 11.414062 15.890625s.433594 13.503906-3.167969 19.308594l-14.347656 23.132812c-4.832031 7.792969-13.207031 12.082032-21.765625 12.082032zm-5.527344-16.578126c4.953125 3.070313 11.476563 1.539063 14.546875-3.410156l14.347657-23.132812c3.523437-5.003906 1.839843-11.359375-3.40625-14.546875l-23.132813-14.351563c-4.953125-3.066406-11.476563-1.539062-14.546875 3.410156l-14.351562 23.132813c-3.070313 4.953125-1.542969 11.476563 3.410156 14.546875zm0 0"/><path d="m87.703125 196.792969-16.574219-10.28125c-4.640625-2.878907-7.882812-7.390625-9.128906-12.707031-1.246094-5.316407-.34375-10.800782 2.535156-15.441407l10.277344-16.574219c2.878906-4.640624 7.394531-7.882812 12.710938-9.128906 5.316406-1.246094 10.800781-.34375 15.4375 2.535156l16.574218 10.277344c9.582032 5.941406 12.539063 18.570313 6.597656 28.148438l-10.277343 16.574218c-7.125 10.488282-18.160157 11.890626-28.152344 6.597657zm-.140625-47.097657-10.28125 16.574219c-2.445312 4.15625.519531 6.726563 1.757812 7.496094l16.574219 10.277344v.003906c2.546875 1.578125 5.910157.792969 7.492188-1.757813l10.28125-16.574218c1.582031-2.550782.792969-5.914063-1.753907-7.496094l-16.578124-10.277344c-.871094-.542968-4.957032-1.847656-7.492188 1.753906zm0 0"/><path d="m304.359375 440.804688-16.425781-10.515626c-4.601563-2.941406-7.777344-7.5-8.949219-12.835937-1.171875-5.332031-.195313-10.804687 2.75-15.402344l10.515625-16.425781c2.945312-4.601562 7.503906-7.777344 12.835938-8.949219 5.332031-1.171875 10.804687-.195312 15.402343 2.75l16.429688 10.515625c9.492187 6.078125 12.273437 18.746094 6.195312 28.238282l-10.515625 16.429687c-10.367187 14.359375-24.90625 8.328125-28.238281 6.195313zm.523437-47.09375-10.515624 16.425781c-.78125 1.226562-1.042969 2.683593-.730469 4.101562.3125 1.421875 1.15625 2.632813 2.378906 3.417969l16.429687 10.515625h.003907c1.222656.785156 2.675781 1.046875 4.097656.734375s2.632813-1.160156 3.417969-2.382812l10.515625-16.429688c1.617187-2.527344.878906-5.898438-1.648438-7.519531l-16.429687-10.515625c-.886719-.566406-5.089844-2.242188-7.519532 1.652344zm0 0"/><path d="m144.0625 411.9375-15.390625-22.453125c-3.859375-5.632813-5.296875-12.433594-4.046875-19.144531 1.253906-6.714844 5.046875-12.535156 10.679688-16.394532l22.453124-15.394531c5.632813-3.859375 12.429688-5.296875 19.144532-4.042969 6.710937 1.25 12.535156 5.042969 16.394531 10.675782l15.390625 22.453125c7.972656 11.628906 4.996094 27.570312-6.632812 35.539062l-22.453126 15.394531c-15.363281 9.085938-29.167968 3.644532-35.539062-6.632812zm12.371094-8.480469c1.597656 2.328125 4.003906 3.894531 6.777344 4.414063 2.773437.515625 5.582031-.078125 7.910156-1.671875l22.453125-15.394531c2.328125-1.59375 3.894531-4 4.414062-6.773438.515625-2.773438-.078125-5.582031-1.671875-7.910156l-15.394531-22.457032c-1.59375-2.324218-4-3.890624-6.773437-4.410156-2.773438-.519531-5.585938.074219-7.910157 1.671875l-22.457031 15.390625c-2.324219 1.597656-3.894531 4.003906-4.410156 6.773438-.519532 2.773437.074218 5.585937 1.671875 7.910156zm0 0"/><path d="m443.144531 376.289062-27.210937-.894531c-14.085938-.464843-25.171875-12.304687-24.707032-26.390625.136719-4.140625 3.585938-7.382812 7.742188-7.25 4.140625.136719 7.382812 3.605469 7.25 7.742188-.191406 5.824218 4.386719 10.714844 10.210938 10.90625l27.207031.894531c2.835937.09375 10.609375-.628906 10.90625-10.210937l.894531-27.207032c.191406-5.824218-4.390625-10.714844-10.210938-10.90625l-27.210937-.894531c-5.816406-.171875-10.710937 4.390625-10.902344 10.210937-.136719 4.140626-3.601562 7.378907-7.742187 7.25-4.140625-.136718-7.386719-3.605468-7.25-7.746093.460937-14.085938 12.328125-25.152344 26.390625-24.707031l27.207031.894531c14.089844.464843 25.175781 12.304687 24.710938 26.390625l-.894532 27.207031c-.902344 24.710937-26.101562 24.71875-26.390625 24.710937zm0 0"/></svg>