<svg id="Layer_1" height="512" viewBox="0 0 512 512" width="512" xmlns="http://www.w3.org/2000/svg" data-name="Layer 1"><path d="m439.45 68h-366.89c-22.1 0-39.56 18.2-39.56 40.29v295.71h446v-295.71c0-22.09-17.46-40.29-39.55-40.29z" fill="#cbdbef"/><path d="m69.05 109.29h373.9v223.78h-373.9z" fill="#49bdff"/><path d="m69 109h30v224h-30z" fill="#92deff"/><path d="m63 108.29c0-22.09 17.46-40.29 39.56-40.29h-30c-22.1 0-39.56 18.2-39.56 40.29v295.71h30z" fill="#e3f0ff"/><path d="m498.54 378.12v25.59a40 40 0 0 1 -40 40h-405.08a40 40 0 0 1 -40-40v-25.59h162.17l27.64 21.64h105.46l27.64-21.64z" fill="#bccddd"/><path d="m43.46 403.71v-25.59h-30v25.59a40 40 0 0 0 40 40h30a40 40 0 0 1 -40-40z" fill="#e1eaf4"/><g fill="#284268"><path d="m498.54 372h-13.54v-263.71c0-25.364-20.186-46.29-45.55-46.29h-366.89c-25.36 0-45.56 20.926-45.56 46.29v263.71h-13.54c-3.314 0-6.46 2.807-6.46 6.12v25.59c0 25.364 21.1 46.29 46.46 46.29h405.08c25.36 0 46.46-20.926 46.46-46.29v-25.59c0-3.313-3.146-6.12-6.46-6.12zm-5.54 31.71c0 18.748-15.712 34.29-34.46 34.29h-405.08c-18.748 0-34.46-15.542-34.46-34.29v-19.71h154.561l26.01 20.544a6.191 6.191 0 0 0 3.7 1.456h105.459a6.191 6.191 0 0 0 3.7-1.456l26.009-20.544h63.894a6 6 0 1 0 0-12h-65.963a6.191 6.191 0 0 0 -3.7 1.456l-26.009 20.544h-101.322l-26.01-20.544a6.191 6.191 0 0 0 -3.7-1.456h-136.629v-263.71c0-18.748 14.812-34.29 33.56-34.29h366.89c18.75 0 33.55 15.542 33.55 34.29v263.71h-41.333a6 6 0 1 0 0 12h61.333z"/><path d="m449 333.07v-223.78a6.3 6.3 0 0 0 -6.05-6.29h-287.617a6 6 0 1 0 0 12h281.667v212h-362v-212h50a6 6 0 0 0 0-12h-55.95a6.3 6.3 0 0 0 -6.05 6.29v223.78a5.984 5.984 0 0 0 6.05 5.93h373.9a5.984 5.984 0 0 0 6.05-5.93z"/><path d="m101 343a6 6 0 0 0 -6 6v12a6 6 0 0 0 12 0v-12a6 6 0 0 0 -6-6z"/><path d="m121 343a6 6 0 0 0 -6 6v12a6 6 0 0 0 12 0v-12a6 6 0 0 0 -6-6z"/><path d="m141 343a6 6 0 0 0 -6 6v12a6 6 0 0 0 12 0v-12a6 6 0 0 0 -6-6z"/><path d="m366.527 147.648-27.75 27.76a6 6 0 1 0 8.486 8.484l27.75-27.76a6 6 0 0 0 -8.486-8.484z"/><path d="m390.878 152.517-47.24 47.23a6 6 0 1 0 8.484 8.486l47.24-47.233a6 6 0 1 0 -8.484-8.486z"/><path d="m367.987 204.617a6 6 0 0 0 8.486 8.486l27.75-27.75a6 6 0 0 0 -8.486-8.486z"/></g></svg>