<?xml version="1.0"?><svg xmlns="http://www.w3.org/2000/svg">
  <path d="m500,495l8.5,6l0.299988,0.200012l0.200012,0.299988l3.5,0.299988l3.5,0.200012l0.200012,-1l0.299988,-1l0,-2.5l0,-2.5l-0.5,-2q-0.5,-2 -1.5,-5.5q-1,-3.5 -6.5,-16.5q-5.5,-13 -6,-22q-0.5,-9 0.5,-12.5q1,-3.5 3,-6q2,-2.5 7.5,-7q5.5,-4.5 14.200012,-8.299988q8.799988,-3.700012 23.799988,-4.200012q15,-0.5 25,2q10,2.5 17,6q7,3.5 12.799988,9.200012q5.700012,5.799988 10.200012,12.799988q4.5,7 8,16.5q3.5,9.5 4,19q0.5,9.5 -2.5,23.5q-3,14 -11,30q-8,16 -13.700012,22.799988q-5.799988,6.700012 -9.299988,11q-3.5,4.200012 -9,8q-5.5,3.700012 -15.5,8.700012q-10,5 -22.5,8q-12.5,3 -39.5,3.5q-27,0.5 -35.5,-1q-8.5,-1.5 -16,-4q-7.5,-2.5 -12.5,-6.5q-5,-4 -10.5,-12q-5.5,-8 -12.299988,-20.299988q-6.700012,-12.200012 -14.200012,-30.200012q-7.5,-18 -10.5,-28.5q-3,-10.5 -3.5,-24.5q-0.5,-14 0.5,-19.5q1,-5.5 4.5,-17q3.5,-11.5 9.5,-23q6,-11.5 14.5,-23q8.5,-11.5 25.5,-29q17,-17.5 19.700012,-19q2.799988,-1.5 3,-2.5q0.299988,-1 3,-2.799988q2.799988,-1.700012 14,-10q11.299988,-8.200012 23.299988,-15.200012q12,-7 26.700012,-12.799988q14.799988,-5.700012 26.299988,-8.200012q11.5,-2.5 30.5,-3q19,-0.5 25.5,0.5q6.5,1 23,5q16.5,4 32.5,12q16,8 26,15q10,7 14,11.700012q4,4.799988 5,5q1,0.299988 7.5,7.799988q6.5,7.5 14.299988,19.799988q7.700012,12.200012 11.200012,22.200012q3.5,10 7,33q3.5,23 3.5,59.5q0,36.5 -2.5,52.5q-2.5,16 -8,31q-5.5,15 -11.5,25.5q-6,10.5 -15,22q-9,11.5 -18.5,21q-9.5,9.5 -23,20q-13.5,10.5 -27.200012,19.299988q-13.799988,8.700012 -29.799988,17.200012q-16,8.5 -38,17.5q-22,9 -44.5,15q-22.5,6 -47.5,10q-25,4 -52.5,4q-27.5,0 -36,-1.5q-8.5,-1.5 -25.5,-6q-17,-4.5 -33.5,-12.5q-16.5,-8 -27.5,-15.5q-11,-7.5 -22,-17.5q-11,-10 -22.5,-23.5q-11.5,-13.5 -20.699997,-29.200012q-9.300003,-15.799988 -14.800003,-31.299988q-5.5,-15.5 -9,-32.5q-3.5,-17 -4.5,-36.5q-1,-19.5 0.5,-40.5q1.5,-21 5.5,-41q4,-20 9.5,-36q5.5,-16 13.5,-32q8,-16 15,-27q7,-11 19,-25q12,-14 30.299988,-30.799988q18.200012,-16.700012 19.700012,-18.400024q1.5,-1.799988 15.299988,-11.799988q13.700012,-10 25,-17.199997q11.200012,-7.300003 24.200012,-13.300003q13,-6 24.5,-6.5q11.5,-0.5 18,2q6.5,2.5 8.5,4.800003q2,2.199997 3,2.399994q1,0.300003 4.200012,6.600006q3.299988,6.199997 3.799988,17.699997q0.5,11.5 -3,24.5q-3.5,13 -9.200012,22.5q-5.799988,9.5 -6.799988,9.700012q-1,0.299988 -5.200012,5q-4.299988,4.799988 -11.599976,9q-7.200012,4.299988 -17.700012,12.799988q-10.5,8.5 -21.5,19.5q-11,11 -17.5,19.700012q-6.5,8.799988 -7.5,9q-1,0.299988 -9.5,14.799988q-8.5,14.5 -14.700012,29.799988q-6.299988,15.200012 -10.299988,34.700012q-4,19.5 -4.5,35.5q-0.5,16 1.5,29q2,13 7,26.5q5,13.5 12.5,25.5q7.5,12 11.200012,15.5q3.799988,3.5 4,4.5q0.299988,1 3,3q2.799988,2 3,3q0.299988,1 7,6.799988q6.799988,5.700012 11.299988,8q4.5,2.200012 4.5,3.200012q0,1 11.799988,6q11.700012,5 28,8.799988q16.200012,3.700012 32.200012,4.200012q16,0.5 35,-2.5q19,-3 30.5,-7q11.5,-4 23,-9.5q11.5,-5.5 14.5,-7q3,-1.5 8.5,-5q5.5,-3.5 17.5,-13q12,-9.5 15.5,-13.200012q3.5,-3.799988 4.5,-4q1,-0.299988 6,-6q5,-5.799988 6.200012,-6.299988q1.299988,-0.5 13.799988,-17q12.5,-16.5 21,-33.5q8.5,-17 13.5,-34q5,-17 7,-33.5q2,-16.5 1,-34q-1,-17.5 -3.299988,-19.5q-2.200012,-2 -2.400024,-3q-0.299988,-1 -6.299988,-8q-6,-7 -12.5,-12.5q-6.5,-5.5 -15.799988,-10.700012q-9.200012,-5.299988 -19.700012,-8.299988q-10.5,-3 -23.5,-3.5q-13,-0.5 -26,2q-13,2.5 -26.5,8q-13.5,5.5 -26.5,12.5q-13,7 -21.799988,14.299988q-8.700012,7.200012 -12.400024,10.700012q-3.799988,3.5 -5.799988,7.299988q-2,3.700012 -4.799988,10.400024q-2.700012,6.799988 -3.200012,18.799988q-0.5,12 1,17.5q1.5,5.5 5.5,14.5q4,9 9,14q5,5 13.5,11z"/>
  <path d="m671,713q8,-0.5 14.5,2q6.5,2.5 13.5,8.5q7,6 15.200012,16.299988q8.299988,10.200012 17.599976,25.400024q9.200012,15.299988 31.400024,64q22.299988,48.799988 22.799988,54.799988q0.5,6 -0.5,9.5q-1,3.5 -5.700012,8.700012q-4.799988,5.299988 -10.799988,8.299988q-6,3 -12.5,3.5q-6.5,0.5 -10.5,-1q-4,-1.5 -17,-12.799988q-13,-11.200012 -17,-16.400024q-4,-5.299988 -15.799988,-20.599976q-11.700012,-15.200012 -23.200012,-35.200012q-11.5,-20 -21.5,-45q-10,-25 -10,-37.5q0,-12.5 3.299988,-18q3.200012,-5.5 5,-6.5q1.700012,-1 7.400024,-4.200012q5.799988,-3.299988 13.799988,-3.799988z"/>
  <path d="m560.5,4.8l5.5,-4.8l7.5,0l7.5,0l0,0.2l0,0.3l2,0.5l2,0.5l1,0.5l1,0.5l1,0.5q1,0.5 3,1.5q2,1 4.5,3.5q2.5,2.5 6.299988,9.200001q3.700012,6.799999 3.700012,26.299999q0,19.5 -2,37q-2,17.5 -5.5,38.5q-3.5,21 -9,40.5q-5.5,19.5 -9,27q-3.5,7.5 -9.200012,14q-5.799988,6.5 -9.299988,7.699997q-3.5,1.300003 -10.5,1.300003q-7,0 -13,-3.300003q-6,-3.199997 -7.799988,-6.199997q-1.700012,-3 -4.200012,-10q-2.5,-7 -3,-33q-0.5,-26 1,-41q1.5,-15 5,-33q3.5,-18 9,-35q5.5,-17 11.200012,-27.799999q5.799988,-10.700001 11.299988,-15.400001z"/>
  <path d="m4.2,475.799988l-0.2,-0.299988l-0.2,-0.299988l-0.3,-0.200012l-0.3,-0.200012l-0.2,-0.299988l-0.2,-0.299988l-0.3,-0.200012l-0.3,-0.200012l-0.2,-0.299988l-0.2,-0.299988l-0.3,-0.200012l-0.5,-1.5l-0.5,-1.5l-0.3,0l-0.2,0l0,-5.5l0,-5.5l0.2,0l0.3,0l0.5,-1.5l0.5,-1.5l0.5,-1l0.5,-1l0.5,-1l0.5,-1l7.3,-6.200012q7.2,-6.299988 24.7,-11.799988q17.5,-5.5 33.5,-7q16,-1.5 43,-0.5q27,1 44.5,5q17.5,4 25.699997,7.700012q8.300003,3.799988 12.800003,6.799988q4.5,3 8,8.5q3.5,5.5 3,11q-0.5,5.5 -2.800003,9.299988q-2.199997,3.700012 -10.699997,9.200012q-8.5,5.5 -20,9q-11.5,3.5 -33,6q-21.5,2.5 -44,1.5q-22.5,-1 -38.5,-4q-16,-3 -30.5,-8.299988q-14.5,-5.200012 -14.5,-6.200012q0,-1 -3.8,-3.5q-3.7,-2.5 -4,-2.700012z"/>
  <path d="m795,589q13,-0.5 24.5,3q11.5,3.5 24.5,10.5q13,7 31.5,18.700012q18.5,11.799988 18.5,12.799988q0,1 2.5,2.200012q2.5,1.299988 6,3q3.5,1.799988 3.700012,2.799988q0.299988,1 24,17.799988q23.799988,16.700012 27.599976,21q3.700012,4.200012 4.200012,11.200012q0.5,7 -2.5,16q-3,9 -7.299988,13.799988q-4.200012,4.700012 -12.200012,4.700012q-8,0 -22,-7q-14,-7 -45,-23.5q-31,-16.5 -36.5,-19.200012q-5.5,-2.799988 -5.5,-3.799988q0,-1 -1,-1.200012q-1,-0.299988 -24.5,-14.799988q-23.5,-14.5 -28.700012,-18.799988q-5.299988,-4.200012 -7.799988,-8.200012q-2.5,-4 -3,-11.5q-0.5,-7.5 0.5,-10q1,-2.5 3,-6.5q2,-4 7.299988,-8.200012q5.200012,-4.299988 18.200012,-4.799988z"/>
  <path d="m248.800003,19.799999l0.199997,-0.299999l3,0q3,0 7.5,2.5q4.5,2.5 10,8q5.5,5.5 16.700012,21.200001q11.299988,15.799999 13.599976,20.299999q2.200012,4.5 3.200012,4.5q1,0 6.5,10.800003q5.5,10.699997 14.700012,31.399994q9.299988,20.800003 14.299988,38.300003q5,17.5 7,31q2,13.5 0,18.5q-2,5 -5.299988,7.199997q-3.200012,2.300003 -7.700012,2.800003q-4.5,0.5 -10,-1q-5.5,-1.5 -11,-5.199997q-5.5,-3.800003 -5.700012,-4.800003q-0.299988,-1 -4.599976,-4.800003q-4.200012,-3.699997 -15.700012,-16.699997q-11.5,-13 -19.5,-25q-8,-12 -10.5,-16.5q-2.5,-4.5 -6.300003,-12.800003q-3.699997,-8.199997 -7.699997,-22.699997q-4,-14.5 -4,-33.5q0,-19 3,-31.5q3,-12.5 5.5,-17q2.5,-4.5 2.800003,-4.700001z"/>
  <path d="m1017.200012,423.200012l3.299988,6.799988l0.5,4l0.5,4l0.299988,0l0.200012,0l0,2.5l0,2.5l-0.200012,0l-0.299988,0l-0.5,3.5l-0.5,3.5l-0.5,1q-0.5,1 -1.5,3q-1,2 -4.299988,5.200012q-3.200012,3.299988 -12.700012,7.299988q-9.5,4 -30,9.5q-20.5,5.5 -58,12.5q-37.5,7 -55.5,7q-18,0 -25,-3q-7,-3 -12.5,-6.5q-5.5,-3.5 -10.299988,-9.200012q-4.700012,-5.799988 -4.700012,-12.799988q0,-7 4,-11q4,-4 10,-7.5q6,-3.5 23.700012,-9.700012q17.799988,-6.299988 40.299988,-11.299988q22.5,-5 45,-8q22.5,-3 48,-4.5q25.5,-1.5 31.5,1.5q6,3 9.200012,9.700012z"/>
  <path d="m532.799988,973.799988l-0.299988,0.200012l-0.299988,0.200012l-0.200012,0.299988l-1,0.5l-1,0.5l-1,0.5l-1,0.5l-1,0.5l-1,0.5l0,0.299988l0,0.200012l-5,0l-5,0l0,-0.200012l0,-0.299988l-1,-0.5l-1,-0.5l-1,-0.5l-1,-0.5l-0.200012,-0.299988l-0.299988,-0.200012l-0.299988,-0.200012l-0.200012,-0.299988l-1,-0.299988q-1,-0.200012 -4.200012,-5.200012q-3.299988,-5 -6.299988,-13.5q-3,-8.5 -5.5,-20.5q-2.5,-12 -2.5,-52.5q0,-40.5 4,-62.5q4,-22 8,-31.5q4,-9.5 5.700012,-12.299988q1.799988,-2.700012 2.799988,-3q1,-0.200012 1.5,-1.400024q0.5,-1.299988 6,-1.299988q5.5,0 10.5,3.5q5,3.5 8.799988,8.200012q3.700012,4.799988 8.200012,15.799988q4.5,11 8,32q3.5,21 3,44.5q-0.5,23.5 -3.5,42q-3,18.5 -6.5,29q-3.5,10.5 -7,16.5q-3.5,6 -5.799988,8.799988q-2.200012,2.700012 -2.400024,3z"/>
  <path d="m361,744q7,-0.5 11,2q4,2.5 6.799988,7.200012q2.700012,4.799988 3.200012,13.799988q0.5,9 -1,19q-1.5,10 -6.5,25q-5,15 -14,34q-9,19 -20.700012,37q-11.799988,18 -12.799988,18.200012q-1,0.299988 -5.5,6q-4.5,5.799988 -7,7.599976q-2.5,1.700012 -11.5,8.200012q-9,6.5 -15.5,7q-6.5,0.5 -9.700012,-1.200012q-3.299988,-1.799988 -5.799988,-5.799988q-2.5,-4 -2.5,-18.5q0,-14.5 4,-29.5q4,-15 10,-31q6,-16 15,-32.5q9,-16.5 20.299988,-32q11.200012,-15.5 16.200012,-19.700012q5,-4.299988 12,-9.299988q7,-5 14,-5.5z"/>
  <path d="m63.799999,202.199997q11.200001,0.300003 33.200001,7.300003q22,7 41.5,16q19.5,9 30.699997,15.300003q11.300003,6.199997 24.600006,14.399994q13.199997,8.300003 16.199997,10.000015q3,1.799988 5,4q2,2.299988 8.800003,9q6.699997,6.799988 10.199997,12.299988q3.5,5.5 5,9.5q1.5,4 1,9.5q-0.5,5.5 -2.800003,9.299988q-2.199997,3.700012 -7.199997,6.700012q-5,3 -17.5,2.5q-12.5,-0.5 -30,-7q-17.5,-6.5 -28.699997,-12.799988q-11.300003,-6.200012 -28.600006,-17.400024q-17.199997,-11.299988 -27.399994,-19.599976q-10.300003,-8.200012 -20.800003,-19.200012q-10.5,-11 -17.5,-22q-7,-11 -7,-19.5q0,-8.5 11.299999,-8.300003z"/>
  <path d="m851.5,178q2.5,-0.5 10.5,0.5q8,1 11.5,3.5q3.5,2.5 8.700012,8.800003q5.299988,6.199997 5.799988,14.199997q0.5,8 -0.5,10q-1,2 -5,6.5q-4,4.5 -10.299988,10q-6.200012,5.5 -6.400024,6.5q-0.299988,1 -11,10.199997q-10.799988,9.300003 -14.299988,13.000015q-3.5,3.799988 -18,13.599976q-14.5,9.700012 -29.5,17.200012q-15,7.5 -26.5,9q-11.5,1.5 -18,0q-6.5,-1.5 -10.700012,-4.799988q-4.299988,-3.200012 -7.299988,-7.200012q-3,-4 -3,-10.5q0,-6.5 3,-11q3,-4.5 5.299988,-6.5q2.200012,-2 5.400024,-6q3.299988,-4 16.599976,-14.800003q13.200012,-10.699997 14.700012,-12.399994q1.5,-1.800003 4.700012,-3.300003q3.299988,-1.5 29.299988,-18.5q26,-17 34.299988,-22.199997q8.200012,-5.300003 10.700012,-5.800003z"/>
  <path d="m207,636q12,-0.5 15,0.799988q3,1.200012 4.800003,3.700012q1.699997,2.5 2.199997,9.5q0.5,7 -1.5,11q-2,4 -7,11.5q-5,7.5 -16.300003,17.700012q-11.199997,10.299988 -15.699997,13q-4.5,2.799988 -4.5,3.799988q0,1 -8.199997,5.5q-8.300003,4.5 -21.600006,11.299988q-13.199997,6.700012 -23.199997,9.700012q-10,3 -18.5,3.5q-8.5,0.5 -13,-1q-4.5,-1.5 -7.5,-4q-3,-2.5 -4.199997,-6.200012q-1.300003,-3.799988 -0.800003,-7.299988q0.5,-3.5 3.5,-8.5q3,-5 15.699997,-17.799988q12.800003,-12.700012 22.300003,-19.400024q9.5,-6.799988 9.5,-7.799988q0,-1 6.800003,-4.5q6.699997,-3.5 17.699997,-9.5q11,-6 21.699997,-10.200012q10.800003,-4.299988 22.800003,-4.799988z"/>
</svg>