<svg version="1.1" xmlns="http://www.w3.org/2000/svg" xmlns:xlink="http://www.w3.org/1999/xlink" x="0px" y="0px"
	 viewBox="0 0 361.245 361.245" style="enable-background:new 0 0 361.245 361.245;" xml:space="preserve">
<polygon style="fill:#FDFADD;" points="322.353,94.684 180.623,142.731 160.041,82.019 244.817,53.28 "/>
<polygon style="fill:#F4F1D7;" points="180.623,142.731 160.041,82.019 181.622,74.703 "/>
<polygon style="fill:#FAD0B0;" points="227.669,283.461 179.623,141.731 240.335,121.149 269.073,205.925 "/>
<polygon style="fill:#C76A6C;" points="133.576,0 181.623,141.731 120.911,162.312 92.172,77.536 "/>
<polygon style="fill:#C8F9EC;" points="38.892,188.777 180.623,140.731 201.204,201.442 116.428,230.181 "/>
<polygon style="fill:#C9E4DF;" points="38.892,188.777 180.623,140.731 180.623,208.419 116.428,230.181 "/>
<circle style="fill:#91C8F5;" cx="180.623" cy="141.731" r="26.232"/>
<path style="fill:#84B2D3;" d="M180.623,167.963c-14.488,0-26.232-11.745-26.232-26.232s11.745-26.232,26.232-26.232V167.963z"/>
</svg>
